<?xml version="1.0" encoding="UTF-8"?>
<svg id="a" data-name="Layer 1" xmlns="http://www.w3.org/2000/svg" viewBox="0 0 720 720">
  <defs>
    <style>
      .b {
        fill: #050d33;
      }

      .c {
        fill: #26689d;
      }

      .d {
        fill: #296a9e;
      }

      .e {
        fill: #296b9c;
      }

      .f {
        fill: #040f37;
      }

      .g {
        fill: #060f33;
      }

      .h {
        fill: #070e33;
      }

      .i {
        fill: #0f2f60;
      }

      .j {
        fill: #050d31;
      }

      .k {
        fill: #286699;
      }

      .l {
        fill: #071034;
      }

      .m {
        fill: #25669a;
      }

      .n {
        fill: #030d32;
      }

      .o {
        fill: #2a6b9d;
      }

      .p {
        fill: #050f32;
      }

      .q {
        fill: #030a2d;
      }

      .r {
        fill: #266498;
      }

      .s {
        fill: #246295;
      }

      .t {
        fill: #276799;
      }

      .u {
        fill: #246398;
      }

      .v {
        fill: #050f33;
      }

      .w {
        fill: #041036;
      }

      .x {
        fill: #0e3c6c;
      }

      .y {
        fill: #052551;
      }

      .z {
        fill: #040d2f;
      }

      .aa {
        fill: #26689e;
      }
    </style>
  </defs>
  <path class="n" d="m381.24,143.49h-3.54v-6.91c0-7.62-6.35-13.82-14.16-13.82s-14.16,6.2-14.16,13.82v6.91h-3.54c-1.95,0-3.54,1.55-3.54,3.45v24.18c0,1.9,1.59,3.45,3.54,3.45h35.4c1.95,0,3.54-1.55,3.54-3.45v-24.18c0-1.9-1.59-3.45-3.54-3.45Zm-15.93,15.07v5.66c0,.95-.79,1.73-1.77,1.73s-1.77-.77-1.77-1.73v-5.66c-1.05-.6-1.77-1.7-1.77-2.98,0-1.91,1.58-3.45,3.54-3.45s3.54,1.55,3.54,3.45c0,1.27-.72,2.38-1.77,2.98Zm5.31-15.07h-14.16v-6.91c0-3.81,3.18-6.91,7.08-6.91s7.08,3.1,7.08,6.91v6.91Z"/>
  <path class="e" d="m336.79,136.84h-2.13v-4.43c0-4.89-3.83-8.87-8.53-8.87s-8.53,3.98-8.53,8.87v4.43h-2.13c-1.17,0-2.13,1-2.13,2.22v15.51c0,1.22.96,2.22,2.13,2.22h21.33c1.17,0,2.13-1,2.13-2.22v-15.51c0-1.22-.96-2.22-2.13-2.22Zm-9.6,9.67v3.63c0,.61-.48,1.11-1.07,1.11s-1.07-.5-1.07-1.11v-3.63c-.63-.38-1.07-1.09-1.07-1.91,0-1.22.95-2.22,2.13-2.22s2.13.99,2.13,2.22c0,.82-.43,1.52-1.07,1.91Zm3.2-9.67h-8.53v-4.43c0-2.44,1.91-4.43,4.27-4.43s4.27,1.99,4.27,4.43v4.43Z"/>
  <path class="z" d="m298.12,162.97h-2.25v-4.67c0-5.15-4.04-9.34-9-9.34s-9,4.19-9,9.34v4.67h-2.25c-1.24,0-2.25,1.05-2.25,2.34v16.35c0,1.28,1.01,2.34,2.25,2.34h22.5c1.24,0,2.25-1.05,2.25-2.34v-16.35c0-1.28-1.01-2.34-2.25-2.34Zm-9.77,9.56v3.73c0,.63-.49,1.14-1.09,1.14s-1.09-.51-1.09-1.14v-3.73c-.65-.39-1.09-1.12-1.09-1.96,0-1.26.98-2.27,2.19-2.27s2.19,1.02,2.19,2.27c0,.84-.44,1.56-1.09,1.96Zm3.28-9.92h-8.75v-4.55c0-2.51,1.96-4.55,4.37-4.55s4.37,2.04,4.37,4.55v4.55Z"/>
  <path class="x" d="m341.96,174.68h-2.21v-4.41c0-4.87-3.96-8.83-8.83-8.83s-8.83,3.96-8.83,8.83v4.41h-2.21c-1.21,0-2.21.99-2.21,2.21v15.44c0,1.21.99,2.21,2.21,2.21h22.07c1.21,0,2.21-.99,2.21-2.21v-15.44c0-1.21-.99-2.21-2.21-2.21Zm-9.59,9.03v3.52c0,.59-.48,1.07-1.07,1.07s-1.07-.48-1.07-1.07v-3.52c-.64-.37-1.07-1.06-1.07-1.85,0-1.19.96-2.15,2.14-2.15s2.14.96,2.14,2.15c0,.79-.43,1.48-1.07,1.85Zm3.22-9.37h-8.58v-4.3c0-2.37,1.92-4.3,4.29-4.3s4.29,1.93,4.29,4.3v4.3Z"/>
  <path class="d" d="m315.11,196.76h-2.18v-4.36c0-4.81-3.92-8.72-8.74-8.72s-8.74,3.91-8.74,8.72v4.36h-2.18c-1.2,0-2.18.98-2.18,2.18v15.27c0,1.2.98,2.18,2.18,2.18h21.85c1.2,0,2.18-.98,2.18-2.18v-15.27c0-1.2-.98-2.18-2.18-2.18Zm-9.49,8.93v3.48c0,.59-.47,1.06-1.06,1.06s-1.06-.48-1.06-1.06v-3.48c-.63-.37-1.06-1.05-1.06-1.83,0-1.17.95-2.12,2.12-2.12s2.12.95,2.12,2.12c0,.78-.43,1.46-1.06,1.83Zm3.18-9.27h-8.49v-4.25c0-2.34,1.9-4.25,4.25-4.25s4.25,1.91,4.25,4.25v4.25Z"/>
  <path class="k" d="m252.88,233.42h-2.36v-4.86c0-5.36-4.23-9.72-9.43-9.72s-9.43,4.36-9.43,9.72v4.86h-2.36c-1.3,0-2.36,1.09-2.36,2.43v17.01c0,1.34,1.06,2.43,2.36,2.43h23.57c1.3,0,2.36-1.09,2.36-2.43v-17.01c0-1.34-1.06-2.43-2.36-2.43Zm-10.24,9.95v3.88c0,.65-.51,1.18-1.15,1.18s-1.15-.53-1.15-1.18v-3.88c-.68-.41-1.15-1.16-1.15-2.04,0-1.31,1.02-2.37,2.29-2.37s2.29,1.06,2.29,2.37c0,.87-.46,1.63-1.15,2.04Zm3.44-10.33h-9.16v-4.74c0-2.61,2.05-4.74,4.58-4.74s4.58,2.12,4.58,4.74v4.74Z"/>
  <path class="s" d="m252.57,277.39h-2.36v-5.15c0-5.68-4.23-10.29-9.43-10.29s-9.43,4.62-9.43,10.29v5.15h-2.36c-1.3,0-2.36,1.16-2.36,2.57v18.01c0,1.42,1.06,2.57,2.36,2.57h23.57c1.3,0,2.36-1.16,2.36-2.57v-18.01c0-1.42-1.06-2.57-2.36-2.57Zm-10.24,10.53v4.11c0,.69-.51,1.25-1.15,1.25s-1.15-.56-1.15-1.25v-4.11c-.68-.43-1.15-1.23-1.15-2.16,0-1.38,1.02-2.51,2.29-2.51s2.29,1.12,2.29,2.51c0,.92-.46,1.72-1.15,2.16Zm3.44-10.93h-9.16v-5.01c0-2.76,2.05-5.01,4.58-5.01s4.58,2.25,4.58,5.01v5.01Z"/>
  <path class="u" d="m264.64,328.02h-2.13v-4.48c0-1.05-.18-2.07-.5-3.01-.07-.2-.26-.33-.48-.33h-1.11c-1.48,0-2.68-1.23-2.68-2.73v-1.65c0-.2-.11-.38-.29-.46-1.06-.49-2.23-.77-3.46-.77-4.69,0-8.5,4.01-8.5,8.95v4.48h-2.13c-1.17,0-2.13,1.01-2.13,2.24v15.67c0,1.23.96,2.24,2.13,2.24h21.27c1.17,0,2.13-1.01,2.13-2.24v-15.67c0-1.23-.96-2.24-2.13-2.24Zm-9.24,9.17v3.57c0,.6-.46,1.09-1.03,1.09s-1.04-.49-1.04-1.09v-3.57c-.61-.38-1.03-1.08-1.03-1.88,0-1.21.92-2.18,2.07-2.18s2.06.97,2.06,2.18c0,.8-.42,1.5-1.03,1.88Zm3.1-9.52h-8.27v-4.36c0-2.4,1.86-4.36,4.14-4.36s4.13,1.96,4.13,4.36v4.36Z"/>
  <path class="t" d="m311.5,323.82h-2.13v-4.37c0-4.82-3.82-8.75-8.51-8.75s-8.51,3.92-8.51,8.75v4.37h-2.13c-1.17,0-2.13.98-2.13,2.19v15.31c0,1.2.96,2.19,2.13,2.19h21.27c1.17,0,2.13-.98,2.13-2.19v-15.31c0-1.2-.96-2.19-2.13-2.19Zm-9.24,8.95v3.49c0,.59-.46,1.06-1.03,1.06s-1.03-.48-1.03-1.06v-3.49c-.61-.37-1.03-1.05-1.03-1.83,0-1.18.93-2.13,2.07-2.13s2.07.95,2.07,2.13c0,.79-.42,1.47-1.03,1.83Zm3.1-9.29h-8.27v-4.26c0-2.35,1.85-4.26,4.13-4.26s4.13,1.91,4.13,4.26v4.26Z"/>
  <path class="w" d="m299.74,361.37h-2.57v-5.58c0-6.15-4.62-11.15-10.29-11.15s-10.29,5-10.29,11.15v5.58h-2.57c-1.42,0-2.57,1.25-2.57,2.79v19.51c0,1.53,1.16,2.79,2.57,2.79h25.73c1.42,0,2.57-1.25,2.57-2.79v-19.51c0-1.53-1.16-2.79-2.57-2.79Zm-11.18,11.41v4.45c0,.75-.56,1.36-1.25,1.36s-1.25-.61-1.25-1.36v-4.45c-.74-.47-1.25-1.34-1.25-2.34,0-1.5,1.12-2.72,2.5-2.72s2.5,1.22,2.5,2.72c0,1-.51,1.87-1.25,2.34Zm3.75-11.84h-10v-5.43c0-3,2.24-5.43,5-5.43s5,2.44,5,5.43v5.43Z"/>
  <path class="r" d="m338,349.43h-2.08v-4.42c0-4.88-3.73-8.85-8.31-8.85s-8.31,3.97-8.31,8.85v4.42h-2.08c-1.14,0-2.08,1-2.08,2.21v15.48c0,1.22.93,2.21,2.08,2.21h20.76c1.14,0,2.08-1,2.08-2.21v-15.48c0-1.22-.93-2.21-2.08-2.21Zm-9.02,9.05v3.53c0,.59-.45,1.08-1.01,1.08s-1.01-.48-1.01-1.08v-3.53c-.6-.37-1.01-1.06-1.01-1.86,0-1.19.9-2.15,2.02-2.15s2.02.96,2.02,2.15c0,.8-.41,1.48-1.01,1.86Zm3.03-9.4h-8.07v-4.31c0-2.38,1.81-4.31,4.04-4.31s4.04,1.93,4.04,4.31v4.31Z"/>
  <path class="aa" d="m424.45,392.58h-2.08v-4.33c0-3.82-2.37-7.06-5.67-8.21-.24-.08-.51.04-.61.27-.35.79-1.13,1.35-2.03,1.35h-4.6c-.54,0-1.06.24-1.42.64-1.41,1.55-2.28,3.64-2.28,5.95v4.33h-2.07c-1.15,0-2.08.98-2.08,2.17v15.16c0,1.19.93,2.16,2.08,2.16h20.76c1.14,0,2.08-.97,2.08-2.16v-15.16c0-1.19-.94-2.17-2.08-2.17Zm-9.02,8.86v3.46c0,.58-.45,1.06-1.01,1.06s-1.01-.48-1.01-1.06v-3.46c-.6-.36-1.01-1.03-1.01-1.81,0-1.17.91-2.11,2.02-2.11s2.02.94,2.02,2.11c0,.78-.41,1.45-1.01,1.81Zm3.03-9.2h-8.07v-4.21c0-2.33,1.81-4.22,4.03-4.22s4.04,1.89,4.04,4.22v4.21Z"/>
  <path class="v" d="m456.95,371.68h-2.2v-4.78c0-5.27-3.95-9.56-8.82-9.56s-8.82,4.29-8.82,9.56v4.78h-2.2c-1.21,0-2.2,1.08-2.2,2.39v16.73c0,1.31.99,2.39,2.2,2.39h22.04c1.21,0,2.2-1.08,2.2-2.39v-16.73c0-1.31-.99-2.39-2.2-2.39Zm-9.57,9.78v3.81c0,.64-.48,1.16-1.07,1.16s-1.07-.52-1.07-1.16v-3.81c-.64-.4-1.07-1.15-1.07-2.01,0-1.29.96-2.33,2.14-2.33s2.14,1.04,2.14,2.33c0,.86-.43,1.6-1.07,2.01Zm3.21-10.15h-8.57v-4.65c0-2.57,1.92-4.65,4.28-4.65s4.28,2.09,4.28,4.65v4.65Z"/>
  <path class="l" d="m482.63,343.74h-2.2v-4.62c0-5.09-3.95-9.23-8.82-9.23s-8.82,4.14-8.82,9.23v4.62h-2.2c-1.21,0-2.2,1.04-2.2,2.31v16.16c0,1.27.99,2.31,2.2,2.31h22.04c1.21,0,2.2-1.04,2.2-2.31v-16.16c0-1.27-.99-2.31-2.2-2.31Zm-9.57,9.45v3.68c0,.62-.48,1.12-1.07,1.12s-1.07-.5-1.07-1.12v-3.68c-.64-.39-1.07-1.11-1.07-1.94,0-1.24.96-2.25,2.14-2.25s2.14,1.01,2.14,2.25c0,.83-.43,1.55-1.07,1.94Zm3.21-9.81h-8.57v-4.5c0-2.48,1.92-4.5,4.28-4.5s4.28,2.02,4.28,4.5v4.5Z"/>
  <path class="i" d="m335.14,386.67h-2.33v-4.81c0-5.31-4.18-9.62-9.32-9.62s-9.32,4.32-9.32,9.62v4.81h-2.33c-1.28,0-2.33,1.08-2.33,2.41v16.84c0,1.32,1.05,2.41,2.33,2.41h23.31c1.28,0,2.33-1.08,2.33-2.41v-16.84c0-1.32-1.05-2.41-2.33-2.41Zm-10.13,9.85v3.84c0,.65-.51,1.17-1.13,1.17s-1.13-.52-1.13-1.17v-3.84c-.67-.41-1.13-1.15-1.13-2.02,0-1.29,1.01-2.34,2.27-2.34s2.27,1.05,2.27,2.34c0,.86-.46,1.61-1.13,2.02Zm3.4-10.22h-9.06v-4.69c0-2.58,2.03-4.69,4.53-4.69s4.53,2.1,4.53,4.69v4.69Z"/>
  <path class="m" d="m288.4,244.67h-2.68v-5.45c0-6.01-4.81-10.91-10.73-10.91s-10.73,4.89-10.73,10.91v5.45h-2.68c-1.47,0-2.68,1.23-2.68,2.73v19.09c0,1.5,1.21,2.73,2.68,2.73h26.82c1.47,0,2.68-1.23,2.68-2.73v-19.09c0-1.5-1.21-2.73-2.68-2.73Zm-11.65,11.16v4.35c0,.73-.58,1.33-1.3,1.33s-1.3-.59-1.3-1.33v-4.35c-.78-.46-1.3-1.31-1.3-2.29,0-1.47,1.17-2.66,2.61-2.66s2.61,1.19,2.61,2.66c0,.98-.53,1.83-1.3,2.29Zm3.91-11.58h-10.42v-5.31c0-2.93,2.34-5.31,5.21-5.31s5.21,2.38,5.21,5.31v5.31Z"/>
  <path class="u" d="m288.24,294.66h-2.68v-5.45c0-6.02-4.81-10.91-10.72-10.91s-10.73,4.89-10.73,10.91v5.45h-2.68c-1.48,0-2.68,1.23-2.68,2.73v19.08c0,1.5,1.2,2.73,2.68,2.73h26.81c1.48,0,2.69-1.23,2.69-2.73v-19.08c0-1.5-1.21-2.73-2.69-2.73Zm-11.65,11.16v4.35c0,.73-.58,1.33-1.3,1.33s-1.3-.6-1.3-1.33v-4.35c-.78-.46-1.3-1.31-1.3-2.29,0-1.47,1.16-2.66,2.6-2.66s2.61,1.19,2.61,2.66c0,.98-.53,1.83-1.31,2.29Zm3.91-11.58h-10.42v-5.32c0-2.93,2.34-5.31,5.21-5.31s5.21,2.38,5.21,5.31v5.32Z"/>
  <path class="f" d="m381.44,381.21h-3.43v-7.14c0-7.88-6.15-14.29-13.71-14.29s-13.71,6.41-13.71,14.29v7.14h-3.43c-1.88,0-3.43,1.61-3.43,3.57v25.01c0,1.96,1.54,3.57,3.43,3.57h34.27c1.88,0,3.43-1.61,3.43-3.57v-25.01c0-1.96-1.54-3.57-3.43-3.57Zm-14.89,14.62v5.7c0,.96-.74,1.74-1.66,1.74s-1.66-.78-1.66-1.74v-5.7c-.99-.6-1.66-1.71-1.66-3,0-1.92,1.49-3.48,3.33-3.48s3.33,1.56,3.33,3.48c0,1.28-.67,2.39-1.66,3Zm4.99-15.18h-13.32v-6.96c0-3.84,2.99-6.96,6.66-6.96s6.66,3.12,6.66,6.96v6.96Z"/>
  <path class="g" d="m413.06,360.2h-2.23v-4.55c0-5.01-4-9.09-8.92-9.09s-8.92,4.08-8.92,9.09v4.55h-2.23c-1.22,0-2.23,1.02-2.23,2.27v15.91c0,1.25,1.01,2.28,2.23,2.28h22.3c1.05,0,1.94-.76,2.17-1.77.04-.16.06-.33.06-.51v-15.91c0-1.25-1.01-2.27-2.23-2.27Zm-9.69,9.3v3.63c0,.61-.48,1.11-1.08,1.11s-1.09-.5-1.09-1.11v-3.63c-.64-.38-1.08-1.09-1.08-1.9,0-1.23.97-2.22,2.17-2.22s2.16.99,2.16,2.22c0,.81-.43,1.52-1.08,1.9Zm3.25-9.65h-8.66v-4.43c0-2.44,1.94-4.43,4.33-4.43s4.33,1.99,4.33,4.43v4.43Z"/>
  <path class="p" d="m449.88,333.13h-2.39v-4.97c0-5.48-4.3-9.94-9.58-9.94s-9.58,4.46-9.58,9.94v4.97h-2.39c-1.32,0-2.39,1.12-2.39,2.49v17.4c0,1.37,1.08,2.49,2.39,2.49h23.95c1.32,0,2.39-1.12,2.39-2.49v-17.4c0-1.37-1.08-2.49-2.39-2.49Zm-10.4,10.17v3.97c0,.67-.52,1.21-1.16,1.21s-1.16-.54-1.16-1.21v-3.97c-.69-.42-1.16-1.19-1.16-2.09,0-1.34,1.04-2.42,2.33-2.42s2.33,1.08,2.33,2.42c0,.89-.47,1.67-1.16,2.09Zm3.49-10.56h-9.31v-4.84c0-2.67,2.09-4.84,4.65-4.84s4.65,2.17,4.65,4.84v4.84Z"/>
  <path class="q" d="m276.99,198.29h-2.39v-4.87c0-5.37-4.29-9.74-9.57-9.74s-9.57,4.37-9.57,9.74v4.87h-2.39c-1.32,0-2.39,1.1-2.39,2.44v17.05c0,1.34,1.08,2.44,2.39,2.44h23.93c1.32,0,2.39-1.1,2.39-2.44v-17.05c0-1.34-1.08-2.44-2.39-2.44Zm-10.4,9.97v3.89c0,.65-.52,1.19-1.16,1.19s-1.16-.53-1.16-1.19v-3.89c-.69-.41-1.16-1.17-1.16-2.04,0-1.31,1.04-2.37,2.33-2.37s2.33,1.06,2.33,2.37c0,.88-.47,1.63-1.16,2.04Zm3.49-10.35h-9.3v-4.75c0-2.62,2.09-4.75,4.65-4.75s4.65,2.13,4.65,4.75v4.75Z"/>
  <path class="c" d="m406.81,173.25h-2.11v-4.37c0-4.82-3.79-8.74-8.44-8.74s-8.44,3.92-8.44,8.74v4.37h-2.11c-1.16,0-2.11.98-2.11,2.19v15.3c0,1.2.95,2.19,2.11,2.19h21.1c1.16,0,2.11-.98,2.11-2.19v-15.3c0-1.2-.95-2.19-2.11-2.19Zm-9.49,9.53v3.58c0,.6-.47,1.09-1.05,1.09s-1.05-.49-1.05-1.09v-3.58c-.63-.38-1.05-1.08-1.05-1.88,0-1.21.94-2.19,2.11-2.19s2.11.98,2.11,2.19c0,.81-.43,1.5-1.05,1.88Zm3.16-9.53h-8.44v-4.37c0-2.41,1.89-4.37,4.22-4.37s4.22,1.96,4.22,4.37v4.37Z"/>
  <path class="j" d="m416.76,137.17h-2.27v-4.54c0-5.01-4.08-9.09-9.09-9.09s-9.09,4.08-9.09,9.09v4.54h-2.27c-1.25,0-2.27,1.02-2.27,2.27v15.9c0,1.25,1.02,2.27,2.27,2.27h22.72c1.25,0,2.27-1.02,2.27-2.27v-15.9c0-1.25-1.02-2.27-2.27-2.27Zm-10.22,9.91v3.72c0,.63-.51,1.14-1.14,1.14s-1.14-.51-1.14-1.14v-3.72c-.68-.39-1.14-1.12-1.14-1.96,0-1.26,1.02-2.27,2.27-2.27s2.27,1.02,2.27,2.27c0,.84-.46,1.56-1.14,1.96Zm3.41-9.91h-9.09v-4.54c0-2.51,2.04-4.54,4.54-4.54s4.54,2.04,4.54,4.54v4.54Z"/>
  <path class="y" d="m435.13,177.39h-2.18v-4.37c0-.38-.02-.75-.07-1.11h-.72c-1.26,0-2.29-.99-2.29-2.19v-2.66c0-.48-.24-.91-.63-1.19-1.69-1.19-3.81-1.8-6.08-1.54-4.46.52-7.71,4.5-7.71,8.99v4.07s-2.19,0-2.19,0c-1.2,0-2.19.99-2.19,2.19v15.31c0,1.21.99,2.19,2.19,2.19h21.88c1.2,0,2.18-.98,2.18-2.19v-15.31c0-1.2-.99-2.19-2.19-2.19Zm-9.84,9.55v3.58c0,.6-.49,1.09-1.09,1.09s-1.1-.49-1.1-1.09v-3.58c-.79-.46-1.27-1.4-1.02-2.44.18-.75.78-1.36,1.53-1.56,1.47-.39,2.79.71,2.79,2.11,0,.81-.45,1.51-1.1,1.89Zm3.28-9.55h-8.75v-4.37c0-2.55,2.19-4.6,4.8-4.36,2.28.21,3.95,2.25,3.95,4.54v4.19Z"/>
  <path class="b" d="m455.95,208.58h-2.29v-4.38c0-4.82-4.1-8.75-9.15-8.75s-9.15,3.93-9.15,8.75v4.38h-2.29c-1.26,0-2.29.98-2.29,2.19v15.31c0,1.2,1.03,2.19,2.29,2.19h22.87c1.26,0,2.29-.98,2.29-2.19v-15.31c0-1.2-1.03-2.19-2.29-2.19Zm-10.29,9.54v3.58c0,.6-.51,1.09-1.14,1.09s-1.14-.49-1.14-1.09v-3.58c-.68-.38-1.14-1.08-1.14-1.88,0-1.21,1.02-2.19,2.29-2.19s2.29.98,2.29,2.19c0,.81-.46,1.51-1.14,1.88Zm3.43-9.54h-9.15v-4.38c0-2.41,2.05-4.38,4.57-4.38s4.57,1.96,4.57,4.38v4.38Z"/>
  <path class="h" d="m481.08,181.38h-2.38v-4.56c0-5.03-4.28-9.12-9.53-9.12s-9.53,4.09-9.53,9.12v4.56h-2.38c-1.31,0-2.38,1.03-2.38,2.28v15.95c0,1.25,1.07,2.28,2.38,2.28h23.83c1.31,0,2.38-1.03,2.38-2.28v-15.95c0-1.25-1.07-2.28-2.38-2.28Zm-10.72,9.94v3.73c0,.63-.53,1.14-1.19,1.14s-1.19-.51-1.19-1.14v-3.73c-.71-.39-1.19-1.12-1.19-1.96,0-1.26,1.07-2.28,2.38-2.28s2.38,1.02,2.38,2.28c0,.84-.48,1.57-1.19,1.96Zm3.57-9.94h-9.53v-4.56c0-2.51,2.14-4.56,4.77-4.56s4.77,2.04,4.77,4.56v4.56Z"/>
  <path class="o" d="m456.04,151.22h-2.29v-4.38c0-4.82-4.11-8.75-9.15-8.75s-9.15,3.93-9.15,8.75v4.38h-2.29c-1.26,0-2.29.98-2.29,2.18v15.32c0,1.2,1.03,2.19,2.29,2.19h22.88c1.25,0,2.28-.99,2.28-2.19v-15.32c0-1.2-1.03-2.18-2.28-2.18Zm-10.3,9.54v3.58c0,.61-.51,1.1-1.14,1.1s-1.14-.49-1.14-1.1v-3.58c-.69-.38-1.15-1.08-1.15-1.89,0-1.21,1.03-2.18,2.29-2.18s2.29.97,2.29,2.18c0,.81-.47,1.51-1.15,1.89Zm3.43-9.54h-9.15v-4.38c0-2.41,2.06-4.37,4.58-4.37s4.57,1.96,4.57,4.37v4.38Z"/>
</svg>